<?xml version="1.0" encoding="UTF-8" standalone="no"?>
<!-- Created with Inkscape (http://www.inkscape.org/) -->

<svg
   xmlns:dc="http://purl.org/dc/elements/1.1/"
   xmlns:cc="http://creativecommons.org/ns#"
   xmlns:rdf="http://www.w3.org/1999/02/22-rdf-syntax-ns#"
   xmlns:svg="http://www.w3.org/2000/svg"
   xmlns="http://www.w3.org/2000/svg"
   xmlns:sodipodi="http://sodipodi.sourceforge.net/DTD/sodipodi-0.dtd"
   xmlns:inkscape="http://www.inkscape.org/namespaces/inkscape"
   width="128"
   height="128"
   viewBox=""
   version="1.1"
   id="svg8"
   inkscape:version="0.92.1 r15371"
   sodipodi:docname="icon.svg">
  <defs
     id="defs2">
    <inkscape:path-effect
       effect="perspective-envelope"
       up_left_point="55.545937,54.521612"
       up_right_point="100.49115,52.336841"
       down_left_point="46.306022,83.589817"
       down_right_point="93.586132,81.41572"
       id="path-effect4634"
       is_visible="true"
       deform_type="perspective"
       horizontal_mirror="false"
       vertical_mirror="false"
       overflow_perspective="false" />
    <inkscape:path-effect
       overflow_perspective="false"
       vertical_mirror="false"
       horizontal_mirror="false"
       deform_type="perspective"
       is_visible="true"
       id="path-effect4612"
       down_right_point="93.586132,81.41572"
       down_left_point="46.306022,83.589817"
       up_right_point="100.49115,52.336841"
       up_left_point="55.545937,54.521612"
       effect="perspective-envelope" />
    <inkscape:path-effect
       effect="perspective-envelope"
       up_left_point="55.545937,54.521612"
       up_right_point="100.49115,52.336841"
       down_left_point="46.306022,83.589817"
       down_right_point="93.586132,81.41572"
       id="path-effect4562"
       is_visible="true"
       deform_type="perspective"
       horizontal_mirror="false"
       vertical_mirror="false"
       overflow_perspective="false" />
    <filter
       inkscape:collect="always"
       style="color-interpolation-filters:sRGB"
       id="filter4588"
       x="-0.085048943"
       width="1.1700979"
       y="-0.082976615"
       height="1.1659532">
      <feGaussianBlur
         inkscape:collect="always"
         stdDeviation="3.5057382"
         id="feGaussianBlur4590" />
    </filter>
  </defs>
  <sodipodi:namedview
     id="base"
     pagecolor="#ffffff"
     bordercolor="#666666"
     borderopacity="1.0"
     inkscape:pageopacity="0.0"
     inkscape:pageshadow="2"
     inkscape:zoom="3.6796875"
     inkscape:cx="64"
     inkscape:cy="64"
     inkscape:document-units="mm"
     inkscape:current-layer="svg8"
     showgrid="false"
     inkscape:snap-tangential="false"
     inkscape:window-width="1366"
     inkscape:window-height="723"
     inkscape:window-x="0"
     inkscape:window-y="0"
     inkscape:window-maximized="1">
    <inkscape:grid
       type="xygrid"
       id="grid4531"
       dotted="false"
       color="#000000"
       opacity="0.1254902"
       empcolor="#000000"
       empopacity="0.25098039"
       snapvisiblegridlinesonly="true"
       originx="0"
       originy="0"
       spacingx="1.47"
       spacingy="1.47"
       visible="true"
       enabled="true"
       empspacing="4" />
  </sodipodi:namedview>
  <metadata
     id="metadata5">
    <rdf:RDF>
      <cc:Work
         rdf:about="">
        <dc:format>image/svg+xml</dc:format>
        <dc:type
           rdf:resource="http://purl.org/dc/dcmitype/StillImage" />
        <dc:title />
      </cc:Work>
    </rdf:RDF>
  </metadata>
  <path
     style="fill:#1a1a1a;fill-opacity:0.27380952;stroke:none;stroke-width:1.20197845px;stroke-linecap:butt;stroke-linejoin:miter;stroke-opacity:1;filter:url(#filter4588)"
     d="m 95.706554,17.092017 -62.558502,1.488343 -18.744289,85.1567 11.222311,8.71078 72.440012,6.04349 15.266264,-85.206201 -2.61048,-0.05015 C 105.33512,29.183305 95.041436,20.388825 95.041436,20.388825 Z"
     id="path4528"
     inkscape:connector-curvature="0"
     sodipodi:nodetypes="ccccccccc" />
  <path
     style="fill:#500d0b;fill-opacity:1;stroke:none;stroke-width:1.20197845px;stroke-linecap:butt;stroke-linejoin:miter;stroke-opacity:1"
     d="m 12.404425,101.73632 11.22115,8.71123 72.440709,6.04238 15.819096,-86.860135 -29.059914,-4.671651 z"
     id="path4511"
     inkscape:connector-curvature="0"
     sodipodi:nodetypes="cccccc" />
  <g
     inkscape:label="Layer 1"
     inkscape:groupmode="layer"
     id="layer1"
     transform="translate(0,-151.98047)" />
  <path
     style="fill:#e0daaf;fill-opacity:1;stroke:none;stroke-width:1.20197845px;stroke-linecap:butt;stroke-linejoin:miter;stroke-opacity:1"
     d="M 93.041436,18.388825 108.84096,31.332795 94.139516,113.94221 74.085165,103.18691 Z"
     id="path4513"
     inkscape:connector-curvature="0"
     sodipodi:nodetypes="ccccc" />
  <path
     style="fill:#bab58c;fill-opacity:1;stroke:none;stroke-width:1.20197845px;stroke-linecap:butt;stroke-linejoin:miter;stroke-opacity:1"
     d="m 94.139516,113.94221 -67.2841,-5.56821 -8.003954,-6.11857 56.608585,3.29976 0.699024,-3.74826 z"
     id="path4515"
     inkscape:connector-curvature="0" />
  <path
     style="fill:#801411;fill-opacity:1;stroke:none;stroke-width:1.20197845px;stroke-linecap:butt;stroke-linejoin:miter;stroke-opacity:1"
     d="m 12.404425,101.73632 63.055622,3.81887 18.54736,-91.769559 -62.859355,2.794728 z"
     id="path4509"
     inkscape:connector-curvature="0"
     sodipodi:nodetypes="ccccc" />
  <g
     inkscape:path-effect="#path-effect4612"
     transform="matrix(1.0442081,0,0,1.0442081,-20.784094,-31.280055)"
     id="g4610"
     style="font-style:normal;font-weight:normal;font-size:40px;line-height:0.80000001;font-family:sans-serif;letter-spacing:0px;word-spacing:0px;fill:#1a1a1a;fill-opacity:1;stroke:none"
     aria-label="Bible
7913">
    <path
       inkscape:original-d="m 55.390863,72.601612 q 0,-3.16 -3.04,-5.24 l -4.2,-2.96 q 1.12,-1.12 2.2,-2.76 1.12,-1.72 1.12,-2.68 0,-1.92 -1.76,-3.2 -1.72,-1.24 -4.04,-1.24 -1.44,0 -3,0.8 l -3.44,1.84 -1.36,-2.24 q -0.36,-0.4 -0.64,-0.4 l -2.48,0.64 q -2.36,0.68 -3.12,0.68 l 1.24,1.68 q 1.44,2.28 1.44,7.52 v 15.16 l 7.72,1.64 q 5.76,0 9.8,-3.08 3.56,-2.84 3.56,-6.16 z m -5.6,3.12 q 0,2.08 -1.52,3.36 -1.32,1.08 -2.76,1.08 -3.96,0 -5.28,-2.48 -0.68,-1.24 -0.68,-3.72 l -0.04,-4.36 0.04,-8.52 q 0,-1.12 0.76,-2.36 0.84,-1.24 1.88,-1.24 1.52,0 3.4,1.52 1.88,1.52 1.88,2.76 0,1.92 -2.88,2.96 -1.56,0.6 -4.68,1.32 l 7,3.68 q 2.88,2.4 2.88,6 z"
       inkscape:connector-curvature="0"
       id="path4592"
       style="font-style:normal;font-variant:normal;font-weight:normal;font-stretch:normal;line-height:0.80000001;font-family:Libra;-inkscape-font-specification:Libra;text-align:center;text-anchor:middle;fill:#1a1a1a;fill-opacity:1"
       d="m 64.410895,61.847384 c 0.276612,-0.928617 0.02145,-1.672966 -0.763409,-2.234361 0,0 -1.60921,-1.196843 -1.60921,-1.196843 0.453765,-0.342383 0.92351,-0.759446 1.409009,-1.250865 0.504315,-0.514328 0.79785,-0.909629 0.881196,-1.186362 0.166443,-0.552638 0.02749,-0.998866 -0.41614,-1.339146 -0.433881,-0.328952 -1.015567,-0.475517 -1.745434,-0.440038 -0.452972,0.02202 -0.960004,0.159429 -1.521434,0.412372 0,0 -1.87019,0.870698 -1.87019,0.870698 0,0 -0.341372,-0.93249 -0.341372,-0.93249 -0.07739,-0.108998 -0.160077,-0.161339 -0.248095,-0.157061 0,0 -1.255883,0.331654 -1.255883,0.331654 -0.80369,0.230878 -1.325228,0.35217 -1.564262,0.363777 0,0 0.355811,0.695053 0.355811,0.695053 0.246177,0.6342 0.13061,1.708752 -0.349115,3.228702 0,0 -2.112644,6.693657 -2.112644,6.693657 0,0 3.48653,0.557058 3.48653,0.557058 1.850373,-0.08794 3.564295,-0.622382 5.137727,-1.601073 1.393716,-0.89729 2.235306,-1.835766 2.526915,-2.814732 z m -3.099016,1.509378 c -0.186382,0.615946 -0.580799,1.126041 -1.183515,1.529653 -0.521165,0.341516 -1.013005,0.523408 -1.475075,0.545401 -1.27049,0.06047 -2.002925,-0.268356 -2.197133,-0.985017 -0.103305,-0.357301 -0.0407,-0.902733 0.187259,-1.635221 0,0 0.579227,-1.921593 0.579227,-1.921593 0,0 1.1765,-3.719951 1.1765,-3.719951 0.100699,-0.323567 0.326604,-0.669867 0.677474,-1.038838 0.375655,-0.369735 0.727198,-0.562378 1.054992,-0.578274 0.479119,-0.02323 0.94789,0.169326 1.406862,0.578201 0.459749,0.409567 0.635362,0.793737 0.526151,1.152336 -0.16938,0.556166 -0.756538,1.007653 -1.761913,1.353863 -0.548247,0.198329 -1.349567,0.426149 -2.404192,0.683491 0,0 2.839849,1.452318 2.839849,1.452318 0.703186,0.660106 0.895135,1.520755 0.573514,2.583631 z" />
    <path
       inkscape:original-d="m 63.360238,81.001612 v -26.48 l -3.72,0.44 q -1.84,0.28 -3.08,1 0.92,1.04 1.28,2.48 0.36,1.44 0.36,3.48 v 19.8 l 3.2,-0.52 q 0.4,-0.08 1.04,-0.16 0.32,-0.04 0.92,-0.04 z"
       inkscape:connector-curvature="0"
       id="path4594"
       style="font-style:normal;font-variant:normal;font-weight:normal;font-stretch:normal;line-height:0.80000001;font-family:Libra;-inkscape-font-specification:Libra;text-align:center;text-anchor:middle;fill:#1a1a1a;fill-opacity:1"
       d="m 67.141648,65.398211 c 0,0 3.378651,-11.604497 3.378651,-11.604497 0,0 -1.813341,0.274358 -1.813341,0.274358 -0.603366,0.108354 -1.130988,0.275172 -1.583011,0.500555 0.20157,0.284329 0.297989,0.630753 0.289073,1.039493 -0.0089,0.409362 -0.100415,0.908741 -0.274724,1.498611 0,0 -2.580406,8.732183 -2.580406,8.732183 0,0 1.612171,-0.306235 1.612171,-0.306235 0.135618,-0.02999 0.309816,-0.06181 0.522592,-0.09546 0.106384,-0.01683 0.256047,-0.02983 0.448995,-0.03901 z" />
    <path
       inkscape:original-d="m 89.297113,72.601612 q 0,-3.16 -3.04,-5.24 l -4.2,-2.96 q 1.12,-1.12 2.2,-2.76 1.12,-1.72 1.12,-2.68 0,-1.92 -1.76,-3.2 -1.72,-1.24 -4.04,-1.24 -1.44,0 -3,0.8 l -3.44,1.84 -1.36,-2.24 q -0.36,-0.4 -0.64,-0.4 l -2.48,0.64 q -2.36,0.68 -3.12,0.68 l 1.24,1.68 q 1.44,2.28 1.44,7.52 v 15.16 l 7.72,1.64 q 5.76,0 9.8,-3.08 3.56,-2.84 3.56,-6.16 z m -5.6,3.12 q 0,2.08 -1.52,3.36 -1.32,1.08 -2.76,1.08 -3.96,0 -5.28,-2.48 -0.68,-1.24 -0.68,-3.72 l -0.04,-4.36 0.04,-8.52 q 0,-1.12 0.76,-2.36 0.84,-1.24 1.88,-1.24 1.52,0 3.4,1.52 1.88,1.52 1.88,2.76 0,1.92 -2.88,2.96 -1.56,0.6 -4.68,1.32 l 7,3.68 q 2.88,2.4 2.88,6 z"
       inkscape:connector-curvature="0"
       id="path4596"
       style="font-style:normal;font-variant:normal;font-weight:normal;font-stretch:normal;line-height:0.80000001;font-family:Libra;-inkscape-font-specification:Libra;text-align:center;text-anchor:middle;fill:#1a1a1a;fill-opacity:1"
       d="m 80.672579,61.068465 c 0.250008,-0.928704 -0.02858,-1.673052 -0.833726,-2.234361 0,0 -1.65216,-1.196663 -1.65216,-1.196663 0.445508,-0.342458 0.904827,-0.759601 1.377742,-1.251104 0.491125,-0.514413 0.774109,-0.909766 0.84953,-1.186517 0.150617,-0.552673 -0.0023,-0.99889 -0.458094,-1.339111 -0.445645,-0.328896 -1.034278,-0.475379 -1.76629,-0.439797 -0.454303,0.02208 -0.959447,0.159568 -1.515769,0.412594 0,0 -1.852333,0.870978 -1.852333,0.870978 0,0 -0.370798,-0.932457 -0.370798,-0.932457 -0.08099,-0.108987 -0.165611,-0.161318 -0.253887,-0.157027 0,0 -1.25147,0.331837 -1.25147,0.331837 -0.800308,0.230995 -1.320506,0.352363 -1.560244,0.364005 0,0 0.378184,0.695014 0.378184,0.695014 0.266247,0.634178 0.182343,1.708774 -0.253988,3.228841 0,0 -1.921586,6.694319 -1.921586,6.694319 0,0 3.518629,0.556614 3.518629,0.556614 1.855929,-0.08821 3.561429,-0.622925 5.112506,-1.601904 1.372998,-0.897546 2.190189,-1.836198 2.453754,-2.815261 z m -3.067488,1.509901 c -0.168755,0.616011 -0.549637,1.126195 -1.142929,1.529918 -0.513241,0.341614 -1.001809,0.523587 -1.465265,0.545646 -1.2743,0.06065 -2.01982,-0.268097 -2.236345,-0.984779 -0.11446,-0.35731 -0.06791,-0.902786 0.139123,-1.63535 0,0 0.524245,-1.921774 0.524245,-1.921774 0,0 1.07029,-3.720257 1.07029,-3.720257 0.09145,-0.32359 0.30798,-0.66993 0.649344,-1.038959 0.366234,-0.369796 0.713553,-0.562492 1.042312,-0.578435 0.48053,-0.0233 0.957131,0.169195 1.43037,0.578014 0.47404,0.409511 0.661935,0.793665 0.562986,1.15229 -0.153465,0.556207 -0.729686,1.007792 -1.72912,1.354156 -0.544723,0.198414 -1.342751,0.426355 -2.394316,0.683855 0,0 2.895867,1.451982 2.895867,1.451982 0.726063,0.66004 0.94464,1.520709 0.653438,2.583693 z" />
    <path
       inkscape:original-d="m 103.98649,79.601612 -0.12,-0.2 -0.16,-0.32 -2.2,0.92 -1,0.36 q -0.720002,0 -1.440002,-0.2 -0.6,-0.16 -1.4,-0.56 v -15.96 q 0,-1.44 -0.64,-4.16 -0.48,-1.6 -0.84,-2.72 -0.32,-0.96 -0.92,-2.24 l -3.4,0.96 q -1.08,0.36 -2,0.92 1.64,1.24 2.28,4.92 0.16,0.8 0.16,1.8 v 18.64 h 8.360002 q 1.16,0 2.36,-1.08 z"
       inkscape:connector-curvature="0"
       id="path4598"
       style="font-style:normal;font-variant:normal;font-weight:normal;font-stretch:normal;line-height:0.80000001;font-family:Libra;-inkscape-font-specification:Libra;text-align:center;text-anchor:middle;fill:#1a1a1a;fill-opacity:1"
       d="m 86.934769,63.838633 c 0,0 -0.0351,-0.08653 -0.0351,-0.08653 0,0 -0.04066,-0.13912 -0.04066,-0.13912 0,0 -1.169637,0.461411 -1.169637,0.461411 0,0 -0.525389,0.183915 -0.525389,0.183915 -0.232182,0.01105 -0.456591,-0.0077 -0.673192,-0.05625 -0.180978,-0.03846 -0.384799,-0.111116 -0.611412,-0.217936 0,0 1.844398,-7.037066 1.844398,-7.037066 0.10947,-0.417667 0.165654,-1.01494 0.168672,-1.790617 -0.03104,-0.45365 -0.06118,-0.838464 -0.09044,-1.154738 -0.02867,-0.270617 -0.08947,-0.584659 -0.182349,-0.941965 0,0 -1.721119,0.490678 -1.721119,0.490678 -0.368962,0.119769 -0.720439,0.267027 -1.054478,0.441817 0.423297,0.330926 0.594995,1.021244 0.51442,2.073664 -0.01093,0.229008 -0.05501,0.488407 -0.132307,0.77828 0,0 -2.194347,8.229379 -2.194347,8.229379 0,0 4.046926,-0.192354 4.046926,-0.192354 0.374508,-0.0178 0.797139,-0.197163 1.267494,-0.537811 0,0 0.588524,-0.504759 0.588524,-0.504759 z" />
    <path
       inkscape:original-d="m 126.60524,74.801612 -0.32,-0.96 -2.08,-0.64 -0.88,0.32 q -0.28,2.52 -1.12,4 -1.08,1.76 -2.96,1.76 -2.92,0 -6.04,-3.16 -3.16,-3.16 -3.16,-5.8 0.08,-0.48 0.4,-0.8 l 0.52,-0.52 h 6.92 q 0.96,0 3,-0.92 1.92,-0.92 3,-1.92 l -4.76,0.48 q -0.56,0.12 -1.72,0.2 h -0.04 q -0.6,0.04 -1.68,0.04 h -0.44 -0.52 q -2.2,0 -3.6,-0.44 -1.36,-0.36 -1.36,-1.08 0,-3.56 2.4,-6.36 1.92,-2.2 2.84,-2.2 1.16,0 3.4,1.48 l 4.32,3.04 0.84,-0.6 q 0.92,-0.84 1.84,-2.28 -1.6,-1.56 -2.76,-2.28 -2.44,-1.56 -4.8,-1.56 -0.64,0 -3.44,1.28 -3.84,1.84 -6.16,4.44 -3.28,3.64 -3.28,8.56 0,5.48 4.04,9.4 3.44,3.24 6.44,3.24 4.76,0 8.28,-2.76 2.88,-2.28 2.88,-3.96 z"
       inkscape:connector-curvature="0"
       id="path4600"
       style="font-style:normal;font-variant:normal;font-weight:normal;font-stretch:normal;line-height:0.80000001;font-family:Libra;-inkscape-font-specification:Libra;text-align:center;text-anchor:middle;fill:#1a1a1a;fill-opacity:1"
       d="m 98.390803,61.181966 c 0,0 -0.05341,-0.417725 -0.05341,-0.417725 0,0 -0.935414,-0.235043 -0.935414,-0.235043 0,0 -0.458158,0.161794 -0.458158,0.161794 -0.268859,0.748291 -0.591561,1.348779 -0.968002,1.800491 -0.474565,0.539312 -1.015588,0.823784 -1.622378,0.852686 -0.942329,0.04488 -1.800685,-0.378421 -2.573145,-1.267553 -0.782589,-0.885389 -1.0751,-1.715475 -0.880006,-2.490972 0.06103,-0.141998 0.154535,-0.262324 0.280521,-0.361009 0,0 0.306925,-0.240412 0.306925,-0.240412 0,0 3.321842,-0.159588 3.321842,-0.159588 0.307324,-0.01477 0.820334,-0.172463 1.53856,-0.472903 0.679234,-0.298339 1.226404,-0.60163 1.641637,-0.909836 0,0 -2.332523,0.319766 -2.332523,0.319766 -0.1875,0.04361 -0.469466,0.08601 -0.845889,0.127193 0,0 -0.01917,9.23e-4 -0.01917,9.23e-4 -0.194605,0.0209 -0.464468,0.03965 -0.809573,0.05626 0,0 -0.210886,0.01015 -0.210886,0.01015 0,0 -0.249219,0.01199 -0.249219,0.01199 -0.702865,0.03383 -1.261833,-0.0027 -1.676803,-0.109472 -0.407839,-0.08404 -0.585279,-0.230917 -0.532489,-0.440558 0.260432,-1.034236 0.873717,-1.973274 1.838563,-2.818233 0.767087,-0.662776 1.295827,-1.000698 1.587485,-1.01485 0.367765,-0.01784 0.854535,0.1686 1.461052,0.559824 0,0 1.740898,1.216007 1.740898,1.216007 0,0 0.463594,-0.279573 0.463594,-0.279573 0.35089,-0.256776 0.72217,-0.599861 1.113631,-1.028948 -0.400885,-0.424164 -0.760265,-0.730425 -1.078461,-0.919214 -0.665304,-0.409641 -1.371131,-0.596031 -2.118284,-0.559714 -0.202601,0.0098 -0.792176,0.219539 -1.769588,0.629435 -1.348388,0.587221 -2.485498,1.273165 -3.411405,2.058602 -1.310473,1.103513 -2.15054,2.37211 -2.518065,3.808343 -0.411599,1.608473 -0.117195,2.9644 0.888297,4.064411 0.866951,0.911295 1.786308,1.345144 2.75583,1.299053 1.538662,-0.07315 2.976877,-0.548564 4.311595,-1.42444 1.090889,-0.721328 1.694477,-1.330107 1.812442,-1.826888 z" />
    <path
       inkscape:original-d="M 65.250247,94.659448 64.971622,94.241511 H 49.960731 l -1.149326,4.423163 q 0.03483,0.313453 0.104484,0.522421 0,0.03483 0.03483,0.03483 L 50.90109,98.42088 q 0.801045,-0.243796 1.323466,-0.278624 0.766217,-0.06966 1.358294,-0.06966 h 7.488032 l 0.03483,0.592077 -5.502832,7.871137 q -1.636919,2.29865 -2.472792,3.76143 -1.010014,1.67175 -3.41315,6.33871 v 0.8707 h 2.960385 z"
       inkscape:connector-curvature="0"
       id="path4602"
       style="font-style:normal;font-variant:normal;font-weight:normal;font-stretch:normal;font-size:32px;line-height:0.80000001;font-family:Libra;-inkscape-font-specification:Libra;text-align:center;text-anchor:middle;fill:#1a1a1a;fill-opacity:1;stroke-width:1.08837676"
       d="m 66.264469,71.533155 c 0,0 -0.08051,-0.184682 -0.08051,-0.184682 0,0 -7.312862,0.343858 -7.312862,0.343858 0,0 -1.175006,2.054826 -1.175006,2.054826 -0.01784,0.09566 -0.02515,0.17505 -0.02192,0.238152 -0.0032,0.0107 8.08e-4,0.01578 0.01216,0.01525 0,0 1.064516,-0.413401 1.064516,-0.413401 0.283398,-0.08699 0.511738,-0.139799 0.685065,-0.158448 0.255919,-0.03305 0.480277,-0.05409 0.673085,-0.06312 0,0 3.658978,-0.171468 3.658978,-0.171468 0,0 -0.0628,0.271589 -0.0628,0.271589 0,0 -3.775797,3.771894 -3.775797,3.771894 -0.750316,0.740191 -1.331733,1.345551 -1.743381,1.815292 -0.489241,0.538564 -1.350475,1.559014 -2.587625,3.066203 0,0 -0.124963,0.412883 -0.124963,0.412883 0,0 1.468381,-0.06761 1.468381,-0.06761 0,0 9.322682,-10.931217 9.322682,-10.931217 z" />
    <path
       inkscape:original-d="m 83.898493,102.84404 q 0,-3.726601 -2.054855,-6.199393 -2.089683,-2.437964 -5.293864,-2.437964 -4.144539,0 -6.895955,2.577276 -2.751416,2.577276 -2.751416,6.338701 0,2.99521 2.542448,5.43318 2.263823,2.08968 4.214194,2.08968 0.870702,0 2.020028,-0.41794 l 2.437963,-0.97518 q 0.383109,0.0697 0.383109,0.34828 0,0.90553 -2.786244,4.10971 -2.50762,2.82107 -4.49282,4.31868 v 0.83587 q 1.602091,-0.66173 3.691774,-2.15934 3.726602,-2.6121 5.92077,-5.50283 3.064868,-4.00523 3.064868,-8.35873 z m -4.28385,1.25381 q 0,1.95037 -0.801046,3.13452 -0.766217,1.14933 -2.263823,1.14933 -1.811059,0 -4.353507,-2.96039 -1.880715,-2.26382 -1.880715,-5.15455 0,-1.184149 0.696561,-2.681755 1.010014,-1.985199 2.646932,-1.985199 1.462779,0 3.41315,1.950371 2.542448,2.542443 2.542448,6.547673 z"
       inkscape:connector-curvature="0"
       id="path4604"
       style="font-style:normal;font-variant:normal;font-weight:normal;font-stretch:normal;font-size:32px;line-height:0.80000001;font-family:Libra;-inkscape-font-specification:Libra;text-align:center;text-anchor:middle;fill:#1a1a1a;fill-opacity:1;stroke-width:1.08837676"
       d="m 74.334622,74.873451 c 0.314586,-1.14906 0.239749,-2.085593 -0.222603,-2.811538 -0.475351,-0.712774 -1.233864,-1.043916 -2.276365,-0.994895 -1.348157,0.06339 -2.581168,0.509001 -3.701465,1.33845 -1.123213,0.831608 -1.852571,1.826566 -2.186893,2.986768 -0.26719,0.927235 -0.09285,1.751407 0.52495,2.471773 0.558771,0.617765 1.159964,0.912318 1.802627,0.88254 0.286928,-0.01329 0.638178,-0.09409 1.053621,-0.24235 0,0 1.332369,-0.512863 1.332369,-0.512863 0.120097,0.01591 0.168044,0.06735 0.143827,0.154355 -0.07877,0.282987 -0.717398,0.947458 -1.91881,1.995807 -1.079105,0.926717 -2.015518,1.642876 -2.807772,2.147018 0,0 -0.113039,0.397312 -0.113039,0.397312 0.590832,-0.234194 1.299492,-0.604272 2.125323,-1.10977 1.464488,-0.881108 2.684148,-1.791981 3.659649,-2.732222 1.354912,-1.298461 2.215468,-2.622163 2.584581,-3.970385 z m -2.267194,0.679908 c -0.167673,0.604434 -0.434276,1.097184 -0.799882,1.477647 -0.351577,0.369552 -0.77392,0.565934 -1.266679,0.588813 -0.595836,0.02766 -1.181767,-0.40014 -1.756394,-1.281192 -0.417312,-0.672723 -0.498221,-1.454849 -0.244118,-2.345582 0.103862,-0.364078 0.334947,-0.781107 0.692933,-1.250883 0.501905,-0.622917 1.018926,-0.946407 1.551881,-0.971438 0.476301,-0.02237 0.948421,0.249468 1.417102,0.816452 0.612518,0.740986 0.748382,1.728916 0.405157,2.966183 z" />
    <path
       inkscape:original-d="m 94.941164,116.87974 -1.323466,-0.94035 q -0.487593,-0.55725 -0.487593,-2.05486 l -0.06966,-6.26905 -0.139313,-6.12973 -0.03483,-7.279067 q -1.149325,0.661733 -4.666959,1.950371 -2.124511,0.835874 -2.612104,1.636919 l 2.124511,-0.243796 q 0.348281,-0.06966 1.010014,-0.06966 V 118.0639 q 0.34828,-0.0348 1.288638,-0.13932 l 0.661733,-0.10448 q 1.25381,-0.17414 1.845887,-0.31345 0.592077,-0.10449 1.393122,-0.31345 0.801045,-0.20897 1.010014,-0.31346 z"
       inkscape:connector-curvature="0"
       id="path4606"
       style="font-style:normal;font-variant:normal;font-weight:normal;font-stretch:normal;font-size:32px;line-height:0.80000001;font-family:Libra;-inkscape-font-specification:Libra;text-align:center;text-anchor:middle;fill:#1a1a1a;fill-opacity:1;stroke-width:1.08837676"
       d="m 78.026914,81.199778 c 0,0 -0.54039,-0.415201 -0.54039,-0.415201 -0.114913,-0.168377 -0.10957,-0.488558 0.01582,-0.960047 0,0 0.748284,-2.941421 0.748284,-2.941421 0,0 0.689317,-2.84557 0.689317,-2.84557 0,0 0.87356,-3.345659 0.87356,-3.345659 -0.428253,0.219307 -1.268431,0.55255 -2.521429,1.000018 -0.762253,0.288124 -1.256512,0.55861 -1.482478,0.81145 0,0 1.070943,-0.160825 1.070943,-0.160825 0.119489,-0.02667 0.287263,-0.04507 0.503332,-0.0552 0,0 -2.593325,9.616595 -2.593325,9.616595 0.118584,-0.01634 0.338411,-0.04825 0.659467,-0.09571 0,0 0.342809,-0.06479 0.342809,-0.06479 0.430952,-0.07429 0.750559,-0.137994 0.958839,-0.191128 0.205324,-0.04211 0.449703,-0.102341 0.733109,-0.180682 0.283357,-0.07833 0.464058,-0.135604 0.542137,-0.171831 0,0 3e-6,-1e-6 3e-6,-1e-6 z" />
    <path
       inkscape:original-d="m 114.63534,110.26241 q 0,-2.12451 -1.70658,-3.83108 l -3.06487,-2.33348 q 1.88072,-1.3583 2.68176,-2.71659 0.55725,-0.8707 0.55725,-1.880712 0,-2.124512 -1.84588,-3.656946 -1.81106,-1.497606 -3.93557,-1.497606 -2.12452,0 -4.70179,1.393122 -2.12451,1.149326 -3.447976,2.925556 v 2.298656 h 1.184156 q 1.42795,-0.59208 1.88071,-1.14933 0.45277,-0.557249 0.45277,-1.25381 l -0.10449,-0.766217 -0.20896,-0.975186 q 0,-0.766217 1.53243,-0.766217 1.32346,0 3.13452,1.184154 2.19417,1.497606 2.19417,3.691776 0,2.05485 -2.12451,3.34349 l -3.51763,1.53243 q 0.59207,0.2438 3.90074,0.69656 2.96038,1.07967 2.96038,4.49282 0,2.57728 -1.46278,4.31868 -1.21898,1.42795 -2.54245,1.42795 -1.81105,0 -3.239,-1.88071 -1.46278,-1.88072 -2.15934,-1.88072 l -1.253811,0.27863 q -0.487593,0.17414 -0.975186,0.20896 -0.52242,0.10449 -1.149325,0.10449 v 0.8707 q 2.681762,3.41315 6.547672,3.41315 4.52765,0 7.48803,-2.36831 2.92556,-2.36831 2.92556,-5.22421 z"
       inkscape:connector-curvature="0"
       id="path4608"
       style="font-style:normal;font-variant:normal;font-weight:normal;font-stretch:normal;font-size:32px;line-height:0.80000001;font-family:Libra;-inkscape-font-specification:Libra;text-align:center;text-anchor:middle;fill:#1a1a1a;fill-opacity:1;stroke-width:1.08837676"
       d="m 88.611258,77.626554 c 0.164371,-0.663684 0.03072,-1.247694 -0.400022,-1.75244 0,0 -1.241661,-1.015353 -1.241661,-1.015353 0.723905,-0.449093 1.269509,-0.889298 1.637154,-1.320612 0.249755,-0.276834 0.413242,-0.570575 0.490568,-0.881158 0.162376,-0.652194 -3.8e-5,-1.198155 -0.486324,-1.63842 -0.476738,-0.429402 -1.061424,-0.62753 -1.754606,-0.594939 -0.693097,0.03259 -1.514404,0.28102 -2.464941,0.745769 -0.784586,0.38386 -1.464118,0.858008 -2.038731,1.422899 0,0 -0.27651,1.060162 -0.27651,1.060162 0,0 0.582174,-0.02721 0.582174,-0.02721 0.515291,-0.204209 0.869166,-0.395475 1.061757,-0.573806 0.192483,-0.178229 0.316264,-0.374277 0.371394,-0.588101 0,0 0.03962,-0.350057 0.03962,-0.350057 0,0 0.01312,-0.44315 0.01312,-0.44315 0.06049,-0.234362 0.340931,-0.363217 0.8414,-0.386713 0.43226,-0.02029 0.898007,0.136684 1.397732,0.471276 0.60148,0.4253 0.817613,0.975179 0.647313,1.650276 -0.159853,0.633681 -0.639295,1.16654 -1.438818,1.597932 0,0 -1.918073,0.793637 -1.918073,0.793637 0.175443,0.06664 0.789881,0.14494 1.84382,0.234946 0.890717,0.290434 1.202901,0.967692 0.93491,2.034439 -0.203022,0.808131 -0.616056,1.49816 -1.239521,2.069161 -0.51856,0.469292 -0.997937,0.714327 -1.437527,0.73458 -0.601481,0.02771 -1.06307,-0.244567 -1.384302,-0.815921 -0.33208,-0.569604 -0.61313,-0.848621 -0.843673,-0.837961 0,0 -0.656599,0.160091 -0.656599,0.160091 -0.175653,0.06219 -0.345622,0.102492 -0.509887,0.120898 -0.181522,0.04084 -0.376053,0.06606 -0.583577,0.07565 0,0 -0.107703,0.410937 -0.107703,0.410937 0.607863,1.035675 1.554945,1.525463 2.839696,1.46633 1.505051,-0.06927 2.844292,-0.501293 4.015298,-1.294612 1.156648,-0.790881 1.844966,-1.633944 2.066522,-2.528527 z" />
  </g>
  <g
     aria-label="Bible
7913"
     style="font-style:normal;font-weight:normal;font-size:40px;line-height:0.80000001;font-family:sans-serif;letter-spacing:0px;word-spacing:0px;fill:#ffffff;fill-opacity:1;stroke:none"
     id="g4632"
     transform="matrix(1.0442081,0,0,1.0442081,-21.360586,-31.856547)"
     inkscape:path-effect="#path-effect4634">
    <path
       d="m 64.410895,61.847384 c 0.276612,-0.928617 0.02145,-1.672966 -0.763409,-2.234361 0,0 -1.60921,-1.196843 -1.60921,-1.196843 0.453765,-0.342383 0.92351,-0.759446 1.409009,-1.250865 0.504315,-0.514328 0.79785,-0.909629 0.881196,-1.186362 0.166443,-0.552638 0.02749,-0.998866 -0.41614,-1.339146 -0.433881,-0.328952 -1.015567,-0.475517 -1.745434,-0.440038 -0.452972,0.02202 -0.960004,0.159429 -1.521434,0.412372 0,0 -1.87019,0.870698 -1.87019,0.870698 0,0 -0.341372,-0.93249 -0.341372,-0.93249 -0.07739,-0.108998 -0.160077,-0.161339 -0.248095,-0.157061 0,0 -1.255883,0.331654 -1.255883,0.331654 -0.80369,0.230878 -1.325228,0.35217 -1.564262,0.363777 0,0 0.355811,0.695053 0.355811,0.695053 0.246177,0.6342 0.13061,1.708752 -0.349115,3.228702 0,0 -2.112644,6.693657 -2.112644,6.693657 0,0 3.48653,0.557058 3.48653,0.557058 1.850373,-0.08794 3.564295,-0.622382 5.137727,-1.601073 1.393716,-0.89729 2.235306,-1.835766 2.526915,-2.814732 z m -3.099016,1.509378 c -0.186382,0.615946 -0.580799,1.126041 -1.183515,1.529653 -0.521165,0.341516 -1.013005,0.523408 -1.475075,0.545401 -1.27049,0.06047 -2.002925,-0.268356 -2.197133,-0.985017 -0.103305,-0.357301 -0.0407,-0.902733 0.187259,-1.635221 0,0 0.579227,-1.921593 0.579227,-1.921593 0,0 1.1765,-3.719951 1.1765,-3.719951 0.100699,-0.323567 0.326604,-0.669867 0.677474,-1.038838 0.375655,-0.369735 0.727198,-0.562378 1.054992,-0.578274 0.479119,-0.02323 0.94789,0.169326 1.406862,0.578201 0.459749,0.409567 0.635362,0.793737 0.526151,1.152336 -0.16938,0.556166 -0.756538,1.007653 -1.761913,1.353863 -0.548247,0.198329 -1.349567,0.426149 -2.404192,0.683491 0,0 2.839849,1.452318 2.839849,1.452318 0.703186,0.660106 0.895135,1.520755 0.573514,2.583631 z"
       style="font-style:normal;font-variant:normal;font-weight:normal;font-stretch:normal;line-height:0.80000001;font-family:Libra;-inkscape-font-specification:Libra;text-align:center;text-anchor:middle;fill:#ffffff;fill-opacity:1"
       id="path4614"
       inkscape:connector-curvature="0"
       inkscape:original-d="m 55.390863,72.601612 q 0,-3.16 -3.04,-5.24 l -4.2,-2.96 q 1.12,-1.12 2.2,-2.76 1.12,-1.72 1.12,-2.68 0,-1.92 -1.76,-3.2 -1.72,-1.24 -4.04,-1.24 -1.44,0 -3,0.8 l -3.44,1.84 -1.36,-2.24 q -0.36,-0.4 -0.64,-0.4 l -2.48,0.64 q -2.36,0.68 -3.12,0.68 l 1.24,1.68 q 1.44,2.28 1.44,7.52 v 15.16 l 7.72,1.64 q 5.76,0 9.8,-3.08 3.56,-2.84 3.56,-6.16 z m -5.6,3.12 q 0,2.08 -1.52,3.36 -1.32,1.08 -2.76,1.08 -3.96,0 -5.28,-2.48 -0.68,-1.24 -0.68,-3.72 l -0.04,-4.36 0.04,-8.52 q 0,-1.12 0.76,-2.36 0.84,-1.24 1.88,-1.24 1.52,0 3.4,1.52 1.88,1.52 1.88,2.76 0,1.92 -2.88,2.96 -1.56,0.6 -4.68,1.32 l 7,3.68 q 2.88,2.4 2.88,6 z" />
    <path
       d="m 67.141648,65.398211 c 0,0 3.378651,-11.604497 3.378651,-11.604497 0,0 -1.813341,0.274358 -1.813341,0.274358 -0.603366,0.108354 -1.130988,0.275172 -1.583011,0.500555 0.20157,0.284329 0.297989,0.630753 0.289073,1.039493 -0.0089,0.409362 -0.100415,0.908741 -0.274724,1.498611 0,0 -2.580406,8.732183 -2.580406,8.732183 0,0 1.612171,-0.306235 1.612171,-0.306235 0.135618,-0.02999 0.309816,-0.06181 0.522592,-0.09546 0.106384,-0.01683 0.256047,-0.02983 0.448995,-0.03901 z"
       style="font-style:normal;font-variant:normal;font-weight:normal;font-stretch:normal;line-height:0.80000001;font-family:Libra;-inkscape-font-specification:Libra;text-align:center;text-anchor:middle;fill:#ffffff;fill-opacity:1"
       id="path4616"
       inkscape:connector-curvature="0"
       inkscape:original-d="m 63.360238,81.001612 v -26.48 l -3.72,0.44 q -1.84,0.28 -3.08,1 0.92,1.04 1.28,2.48 0.36,1.44 0.36,3.48 v 19.8 l 3.2,-0.52 q 0.4,-0.08 1.04,-0.16 0.32,-0.04 0.92,-0.04 z" />
    <path
       d="m 80.672579,61.068465 c 0.250008,-0.928704 -0.02858,-1.673052 -0.833726,-2.234361 0,0 -1.65216,-1.196663 -1.65216,-1.196663 0.445508,-0.342458 0.904827,-0.759601 1.377742,-1.251104 0.491125,-0.514413 0.774109,-0.909766 0.84953,-1.186517 0.150617,-0.552673 -0.0023,-0.99889 -0.458094,-1.339111 -0.445645,-0.328896 -1.034278,-0.475379 -1.76629,-0.439797 -0.454303,0.02208 -0.959447,0.159568 -1.515769,0.412594 0,0 -1.852333,0.870978 -1.852333,0.870978 0,0 -0.370798,-0.932457 -0.370798,-0.932457 -0.08099,-0.108987 -0.165611,-0.161318 -0.253887,-0.157027 0,0 -1.25147,0.331837 -1.25147,0.331837 -0.800308,0.230995 -1.320506,0.352363 -1.560244,0.364005 0,0 0.378184,0.695014 0.378184,0.695014 0.266247,0.634178 0.182343,1.708774 -0.253988,3.228841 0,0 -1.921586,6.694319 -1.921586,6.694319 0,0 3.518629,0.556614 3.518629,0.556614 1.855929,-0.08821 3.561429,-0.622925 5.112506,-1.601904 1.372998,-0.897546 2.190189,-1.836198 2.453754,-2.815261 z m -3.067488,1.509901 c -0.168755,0.616011 -0.549637,1.126195 -1.142929,1.529918 -0.513241,0.341614 -1.001809,0.523587 -1.465265,0.545646 -1.2743,0.06065 -2.01982,-0.268097 -2.236345,-0.984779 -0.11446,-0.35731 -0.06791,-0.902786 0.139123,-1.63535 0,0 0.524245,-1.921774 0.524245,-1.921774 0,0 1.07029,-3.720257 1.07029,-3.720257 0.09145,-0.32359 0.30798,-0.66993 0.649344,-1.038959 0.366234,-0.369796 0.713553,-0.562492 1.042312,-0.578435 0.48053,-0.0233 0.957131,0.169195 1.43037,0.578014 0.47404,0.409511 0.661935,0.793665 0.562986,1.15229 -0.153465,0.556207 -0.729686,1.007792 -1.72912,1.354156 -0.544723,0.198414 -1.342751,0.426355 -2.394316,0.683855 0,0 2.895867,1.451982 2.895867,1.451982 0.726063,0.66004 0.94464,1.520709 0.653438,2.583693 z"
       style="font-style:normal;font-variant:normal;font-weight:normal;font-stretch:normal;line-height:0.80000001;font-family:Libra;-inkscape-font-specification:Libra;text-align:center;text-anchor:middle;fill:#ffffff;fill-opacity:1"
       id="path4618"
       inkscape:connector-curvature="0"
       inkscape:original-d="m 89.297113,72.601612 q 0,-3.16 -3.04,-5.24 l -4.2,-2.96 q 1.12,-1.12 2.2,-2.76 1.12,-1.72 1.12,-2.68 0,-1.92 -1.76,-3.2 -1.72,-1.24 -4.04,-1.24 -1.44,0 -3,0.8 l -3.44,1.84 -1.36,-2.24 q -0.36,-0.4 -0.64,-0.4 l -2.48,0.64 q -2.36,0.68 -3.12,0.68 l 1.24,1.68 q 1.44,2.28 1.44,7.52 v 15.16 l 7.72,1.64 q 5.76,0 9.8,-3.08 3.56,-2.84 3.56,-6.16 z m -5.6,3.12 q 0,2.08 -1.52,3.36 -1.32,1.08 -2.76,1.08 -3.96,0 -5.28,-2.48 -0.68,-1.24 -0.68,-3.72 l -0.04,-4.36 0.04,-8.52 q 0,-1.12 0.76,-2.36 0.84,-1.24 1.88,-1.24 1.52,0 3.4,1.52 1.88,1.52 1.88,2.76 0,1.92 -2.88,2.96 -1.56,0.6 -4.68,1.32 l 7,3.68 q 2.88,2.4 2.88,6 z" />
    <path
       d="m 86.934769,63.838633 c 0,0 -0.0351,-0.08653 -0.0351,-0.08653 0,0 -0.04066,-0.13912 -0.04066,-0.13912 0,0 -1.169637,0.461411 -1.169637,0.461411 0,0 -0.525389,0.183915 -0.525389,0.183915 -0.232182,0.01105 -0.456591,-0.0077 -0.673192,-0.05625 -0.180978,-0.03846 -0.384799,-0.111116 -0.611412,-0.217936 0,0 1.844398,-7.037066 1.844398,-7.037066 0.10947,-0.417667 0.165654,-1.01494 0.168672,-1.790617 -0.03104,-0.45365 -0.06118,-0.838464 -0.09044,-1.154738 -0.02867,-0.270617 -0.08947,-0.584659 -0.182349,-0.941965 0,0 -1.721119,0.490678 -1.721119,0.490678 -0.368962,0.119769 -0.720439,0.267027 -1.054478,0.441817 0.423297,0.330926 0.594995,1.021244 0.51442,2.073664 -0.01093,0.229008 -0.05501,0.488407 -0.132307,0.77828 0,0 -2.194347,8.229379 -2.194347,8.229379 0,0 4.046926,-0.192354 4.046926,-0.192354 0.374508,-0.0178 0.797139,-0.197163 1.267494,-0.537811 0,0 0.588524,-0.504759 0.588524,-0.504759 z"
       style="font-style:normal;font-variant:normal;font-weight:normal;font-stretch:normal;line-height:0.80000001;font-family:Libra;-inkscape-font-specification:Libra;text-align:center;text-anchor:middle;fill:#ffffff;fill-opacity:1"
       id="path4620"
       inkscape:connector-curvature="0"
       inkscape:original-d="m 103.98649,79.601612 -0.12,-0.2 -0.16,-0.32 -2.2,0.92 -1,0.36 q -0.720002,0 -1.440002,-0.2 -0.6,-0.16 -1.4,-0.56 v -15.96 q 0,-1.44 -0.64,-4.16 -0.48,-1.6 -0.84,-2.72 -0.32,-0.96 -0.92,-2.24 l -3.4,0.96 q -1.08,0.36 -2,0.92 1.64,1.24 2.28,4.92 0.16,0.8 0.16,1.8 v 18.64 h 8.360002 q 1.16,0 2.36,-1.08 z" />
    <path
       d="m 98.390803,61.181966 c 0,0 -0.05341,-0.417725 -0.05341,-0.417725 0,0 -0.935414,-0.235043 -0.935414,-0.235043 0,0 -0.458158,0.161794 -0.458158,0.161794 -0.268859,0.748291 -0.591561,1.348779 -0.968002,1.800491 -0.474565,0.539312 -1.015588,0.823784 -1.622378,0.852686 -0.942329,0.04488 -1.800685,-0.378421 -2.573145,-1.267553 -0.782589,-0.885389 -1.0751,-1.715475 -0.880006,-2.490972 0.06103,-0.141998 0.154535,-0.262324 0.280521,-0.361009 0,0 0.306925,-0.240412 0.306925,-0.240412 0,0 3.321842,-0.159588 3.321842,-0.159588 0.307324,-0.01477 0.820334,-0.172463 1.53856,-0.472903 0.679234,-0.298339 1.226404,-0.60163 1.641637,-0.909836 0,0 -2.332523,0.319766 -2.332523,0.319766 -0.1875,0.04361 -0.469466,0.08601 -0.845889,0.127193 0,0 -0.01917,9.23e-4 -0.01917,9.23e-4 -0.194605,0.0209 -0.464468,0.03965 -0.809573,0.05626 0,0 -0.210886,0.01015 -0.210886,0.01015 0,0 -0.249219,0.01199 -0.249219,0.01199 -0.702865,0.03383 -1.261833,-0.0027 -1.676803,-0.109472 -0.407839,-0.08404 -0.585279,-0.230917 -0.532489,-0.440558 0.260432,-1.034236 0.873717,-1.973274 1.838563,-2.818233 0.767087,-0.662776 1.295827,-1.000698 1.587485,-1.01485 0.367765,-0.01784 0.854535,0.1686 1.461052,0.559824 0,0 1.740898,1.216007 1.740898,1.216007 0,0 0.463594,-0.279573 0.463594,-0.279573 0.35089,-0.256776 0.72217,-0.599861 1.113631,-1.028948 -0.400885,-0.424164 -0.760265,-0.730425 -1.078461,-0.919214 -0.665304,-0.409641 -1.371131,-0.596031 -2.118284,-0.559714 -0.202601,0.0098 -0.792176,0.219539 -1.769588,0.629435 -1.348388,0.587221 -2.485498,1.273165 -3.411405,2.058602 -1.310473,1.103513 -2.15054,2.37211 -2.518065,3.808343 -0.411599,1.608473 -0.117195,2.9644 0.888297,4.064411 0.866951,0.911295 1.786308,1.345144 2.75583,1.299053 1.538662,-0.07315 2.976877,-0.548564 4.311595,-1.42444 1.090889,-0.721328 1.694477,-1.330107 1.812442,-1.826888 z"
       style="font-style:normal;font-variant:normal;font-weight:normal;font-stretch:normal;line-height:0.80000001;font-family:Libra;-inkscape-font-specification:Libra;text-align:center;text-anchor:middle;fill:#ffffff;fill-opacity:1"
       id="path4622"
       inkscape:connector-curvature="0"
       inkscape:original-d="m 126.60524,74.801612 -0.32,-0.96 -2.08,-0.64 -0.88,0.32 q -0.28,2.52 -1.12,4 -1.08,1.76 -2.96,1.76 -2.92,0 -6.04,-3.16 -3.16,-3.16 -3.16,-5.8 0.08,-0.48 0.4,-0.8 l 0.52,-0.52 h 6.92 q 0.96,0 3,-0.92 1.92,-0.92 3,-1.92 l -4.76,0.48 q -0.56,0.12 -1.72,0.2 h -0.04 q -0.6,0.04 -1.68,0.04 h -0.44 -0.52 q -2.2,0 -3.6,-0.44 -1.36,-0.36 -1.36,-1.08 0,-3.56 2.4,-6.36 1.92,-2.2 2.84,-2.2 1.16,0 3.4,1.48 l 4.32,3.04 0.84,-0.6 q 0.92,-0.84 1.84,-2.28 -1.6,-1.56 -2.76,-2.28 -2.44,-1.56 -4.8,-1.56 -0.64,0 -3.44,1.28 -3.84,1.84 -6.16,4.44 -3.28,3.64 -3.28,8.56 0,5.48 4.04,9.4 3.44,3.24 6.44,3.24 4.76,0 8.28,-2.76 2.88,-2.28 2.88,-3.96 z" />
    <path
       d="m 66.264469,71.533155 c 0,0 -0.08051,-0.184682 -0.08051,-0.184682 0,0 -7.312862,0.343858 -7.312862,0.343858 0,0 -1.175006,2.054826 -1.175006,2.054826 -0.01784,0.09566 -0.02515,0.17505 -0.02192,0.238152 -0.0032,0.0107 8.08e-4,0.01578 0.01216,0.01525 0,0 1.064516,-0.413401 1.064516,-0.413401 0.283398,-0.08699 0.511738,-0.139799 0.685065,-0.158448 0.255919,-0.03305 0.480277,-0.05409 0.673085,-0.06312 0,0 3.658978,-0.171468 3.658978,-0.171468 0,0 -0.0628,0.271589 -0.0628,0.271589 0,0 -3.775797,3.771894 -3.775797,3.771894 -0.750316,0.740191 -1.331733,1.345551 -1.743381,1.815292 -0.489241,0.538564 -1.350475,1.559014 -2.587625,3.066203 0,0 -0.124963,0.412883 -0.124963,0.412883 0,0 1.468381,-0.06761 1.468381,-0.06761 0,0 9.322682,-10.931217 9.322682,-10.931217 z"
       style="font-style:normal;font-variant:normal;font-weight:normal;font-stretch:normal;font-size:32px;line-height:0.80000001;font-family:Libra;-inkscape-font-specification:Libra;text-align:center;text-anchor:middle;fill:#ffffff;fill-opacity:1;stroke-width:1.08837676"
       id="path4624"
       inkscape:connector-curvature="0"
       inkscape:original-d="M 65.250247,94.659448 64.971622,94.241511 H 49.960731 l -1.149326,4.423163 q 0.03483,0.313453 0.104484,0.522421 0,0.03483 0.03483,0.03483 L 50.90109,98.42088 q 0.801045,-0.243796 1.323466,-0.278624 0.766217,-0.06966 1.358294,-0.06966 h 7.488032 l 0.03483,0.592077 -5.502832,7.871137 q -1.636919,2.29865 -2.472792,3.76143 -1.010014,1.67175 -3.41315,6.33871 v 0.8707 h 2.960385 z" />
    <path
       d="m 74.334622,74.873451 c 0.314586,-1.14906 0.239749,-2.085593 -0.222603,-2.811538 -0.475351,-0.712774 -1.233864,-1.043916 -2.276365,-0.994895 -1.348157,0.06339 -2.581168,0.509001 -3.701465,1.33845 -1.123213,0.831608 -1.852571,1.826566 -2.186893,2.986768 -0.26719,0.927235 -0.09285,1.751407 0.52495,2.471773 0.558771,0.617765 1.159964,0.912318 1.802627,0.88254 0.286928,-0.01329 0.638178,-0.09409 1.053621,-0.24235 0,0 1.332369,-0.512863 1.332369,-0.512863 0.120097,0.01591 0.168044,0.06735 0.143827,0.154355 -0.07877,0.282987 -0.717398,0.947458 -1.91881,1.995807 -1.079105,0.926717 -2.015518,1.642876 -2.807772,2.147018 0,0 -0.113039,0.397312 -0.113039,0.397312 0.590832,-0.234194 1.299492,-0.604272 2.125323,-1.10977 1.464488,-0.881108 2.684148,-1.791981 3.659649,-2.732222 1.354912,-1.298461 2.215468,-2.622163 2.584581,-3.970385 z m -2.267194,0.679908 c -0.167673,0.604434 -0.434276,1.097184 -0.799882,1.477647 -0.351577,0.369552 -0.77392,0.565934 -1.266679,0.588813 -0.595836,0.02766 -1.181767,-0.40014 -1.756394,-1.281192 -0.417312,-0.672723 -0.498221,-1.454849 -0.244118,-2.345582 0.103862,-0.364078 0.334947,-0.781107 0.692933,-1.250883 0.501905,-0.622917 1.018926,-0.946407 1.551881,-0.971438 0.476301,-0.02237 0.948421,0.249468 1.417102,0.816452 0.612518,0.740986 0.748382,1.728916 0.405157,2.966183 z"
       style="font-style:normal;font-variant:normal;font-weight:normal;font-stretch:normal;font-size:32px;line-height:0.80000001;font-family:Libra;-inkscape-font-specification:Libra;text-align:center;text-anchor:middle;fill:#ffffff;fill-opacity:1;stroke-width:1.08837676"
       id="path4626"
       inkscape:connector-curvature="0"
       inkscape:original-d="m 83.898493,102.84404 q 0,-3.726601 -2.054855,-6.199393 -2.089683,-2.437964 -5.293864,-2.437964 -4.144539,0 -6.895955,2.577276 -2.751416,2.577276 -2.751416,6.338701 0,2.99521 2.542448,5.43318 2.263823,2.08968 4.214194,2.08968 0.870702,0 2.020028,-0.41794 l 2.437963,-0.97518 q 0.383109,0.0697 0.383109,0.34828 0,0.90553 -2.786244,4.10971 -2.50762,2.82107 -4.49282,4.31868 v 0.83587 q 1.602091,-0.66173 3.691774,-2.15934 3.726602,-2.6121 5.92077,-5.50283 3.064868,-4.00523 3.064868,-8.35873 z m -4.28385,1.25381 q 0,1.95037 -0.801046,3.13452 -0.766217,1.14933 -2.263823,1.14933 -1.811059,0 -4.353507,-2.96039 -1.880715,-2.26382 -1.880715,-5.15455 0,-1.184149 0.696561,-2.681755 1.010014,-1.985199 2.646932,-1.985199 1.462779,0 3.41315,1.950371 2.542448,2.542443 2.542448,6.547673 z" />
    <path
       d="m 78.026914,81.199778 c 0,0 -0.54039,-0.415201 -0.54039,-0.415201 -0.114913,-0.168377 -0.10957,-0.488558 0.01582,-0.960047 0,0 0.748284,-2.941421 0.748284,-2.941421 0,0 0.689317,-2.84557 0.689317,-2.84557 0,0 0.87356,-3.345659 0.87356,-3.345659 -0.428253,0.219307 -1.268431,0.55255 -2.521429,1.000018 -0.762253,0.288124 -1.256512,0.55861 -1.482478,0.81145 0,0 1.070943,-0.160825 1.070943,-0.160825 0.119489,-0.02667 0.287263,-0.04507 0.503332,-0.0552 0,0 -2.593325,9.616595 -2.593325,9.616595 0.118584,-0.01634 0.338411,-0.04825 0.659467,-0.09571 0,0 0.342809,-0.06479 0.342809,-0.06479 0.430952,-0.07429 0.750559,-0.137994 0.958839,-0.191128 0.205324,-0.04211 0.449703,-0.102341 0.733109,-0.180682 0.283357,-0.07833 0.464058,-0.135604 0.542137,-0.171831 0,0 3e-6,-1e-6 3e-6,-1e-6 z"
       style="font-style:normal;font-variant:normal;font-weight:normal;font-stretch:normal;font-size:32px;line-height:0.80000001;font-family:Libra;-inkscape-font-specification:Libra;text-align:center;text-anchor:middle;fill:#ffffff;fill-opacity:1;stroke-width:1.08837676"
       id="path4628"
       inkscape:connector-curvature="0"
       inkscape:original-d="m 94.941164,116.87974 -1.323466,-0.94035 q -0.487593,-0.55725 -0.487593,-2.05486 l -0.06966,-6.26905 -0.139313,-6.12973 -0.03483,-7.279067 q -1.149325,0.661733 -4.666959,1.950371 -2.124511,0.835874 -2.612104,1.636919 l 2.124511,-0.243796 q 0.348281,-0.06966 1.010014,-0.06966 V 118.0639 q 0.34828,-0.0348 1.288638,-0.13932 l 0.661733,-0.10448 q 1.25381,-0.17414 1.845887,-0.31345 0.592077,-0.10449 1.393122,-0.31345 0.801045,-0.20897 1.010014,-0.31346 z" />
    <path
       d="m 88.611258,77.626554 c 0.164371,-0.663684 0.03072,-1.247694 -0.400022,-1.75244 0,0 -1.241661,-1.015353 -1.241661,-1.015353 0.723905,-0.449093 1.269509,-0.889298 1.637154,-1.320612 0.249755,-0.276834 0.413242,-0.570575 0.490568,-0.881158 0.162376,-0.652194 -3.8e-5,-1.198155 -0.486324,-1.63842 -0.476738,-0.429402 -1.061424,-0.62753 -1.754606,-0.594939 -0.693097,0.03259 -1.514404,0.28102 -2.464941,0.745769 -0.784586,0.38386 -1.464118,0.858008 -2.038731,1.422899 0,0 -0.27651,1.060162 -0.27651,1.060162 0,0 0.582174,-0.02721 0.582174,-0.02721 0.515291,-0.204209 0.869166,-0.395475 1.061757,-0.573806 0.192483,-0.178229 0.316264,-0.374277 0.371394,-0.588101 0,0 0.03962,-0.350057 0.03962,-0.350057 0,0 0.01312,-0.44315 0.01312,-0.44315 0.06049,-0.234362 0.340931,-0.363217 0.8414,-0.386713 0.43226,-0.02029 0.898007,0.136684 1.397732,0.471276 0.60148,0.4253 0.817613,0.975179 0.647313,1.650276 -0.159853,0.633681 -0.639295,1.16654 -1.438818,1.597932 0,0 -1.918073,0.793637 -1.918073,0.793637 0.175443,0.06664 0.789881,0.14494 1.84382,0.234946 0.890717,0.290434 1.202901,0.967692 0.93491,2.034439 -0.203022,0.808131 -0.616056,1.49816 -1.239521,2.069161 -0.51856,0.469292 -0.997937,0.714327 -1.437527,0.73458 -0.601481,0.02771 -1.06307,-0.244567 -1.384302,-0.815921 -0.33208,-0.569604 -0.61313,-0.848621 -0.843673,-0.837961 0,0 -0.656599,0.160091 -0.656599,0.160091 -0.175653,0.06219 -0.345622,0.102492 -0.509887,0.120898 -0.181522,0.04084 -0.376053,0.06606 -0.583577,0.07565 0,0 -0.107703,0.410937 -0.107703,0.410937 0.607863,1.035675 1.554945,1.525463 2.839696,1.46633 1.505051,-0.06927 2.844292,-0.501293 4.015298,-1.294612 1.156648,-0.790881 1.844966,-1.633944 2.066522,-2.528527 z"
       style="font-style:normal;font-variant:normal;font-weight:normal;font-stretch:normal;font-size:32px;line-height:0.80000001;font-family:Libra;-inkscape-font-specification:Libra;text-align:center;text-anchor:middle;fill:#ffffff;fill-opacity:1;stroke-width:1.08837676"
       id="path4630"
       inkscape:connector-curvature="0"
       inkscape:original-d="m 114.63534,110.26241 q 0,-2.12451 -1.70658,-3.83108 l -3.06487,-2.33348 q 1.88072,-1.3583 2.68176,-2.71659 0.55725,-0.8707 0.55725,-1.880712 0,-2.124512 -1.84588,-3.656946 -1.81106,-1.497606 -3.93557,-1.497606 -2.12452,0 -4.70179,1.393122 -2.12451,1.149326 -3.447976,2.925556 v 2.298656 h 1.184156 q 1.42795,-0.59208 1.88071,-1.14933 0.45277,-0.557249 0.45277,-1.25381 l -0.10449,-0.766217 -0.20896,-0.975186 q 0,-0.766217 1.53243,-0.766217 1.32346,0 3.13452,1.184154 2.19417,1.497606 2.19417,3.691776 0,2.05485 -2.12451,3.34349 l -3.51763,1.53243 q 0.59207,0.2438 3.90074,0.69656 2.96038,1.07967 2.96038,4.49282 0,2.57728 -1.46278,4.31868 -1.21898,1.42795 -2.54245,1.42795 -1.81105,0 -3.239,-1.88071 -1.46278,-1.88072 -2.15934,-1.88072 l -1.253811,0.27863 q -0.487593,0.17414 -0.975186,0.20896 -0.52242,0.10449 -1.149325,0.10449 v 0.8707 q 2.681762,3.41315 6.547672,3.41315 4.52765,0 7.48803,-2.36831 2.92556,-2.36831 2.92556,-5.22421 z" />
  </g>
  <g
     aria-label="Bible
7913"
     style="font-style:normal;font-weight:normal;font-size:40px;line-height:0.80000001;font-family:sans-serif;letter-spacing:0px;word-spacing:0px;fill:#f2f24a;fill-opacity:1;stroke:none"
     id="text4539"
     transform="matrix(1.0442081,0,0,1.0442081,-21.07234,-31.568301)"
     inkscape:path-effect="#path-effect4562">
    <path
       d="m 64.410895,61.847384 c 0.276612,-0.928617 0.02145,-1.672966 -0.763409,-2.234361 0,0 -1.609209,-1.196843 -1.609209,-1.196843 0.453764,-0.342383 0.923509,-0.759446 1.409009,-1.250865 0.504314,-0.514328 0.797849,-0.909629 0.881196,-1.186363 0.166443,-0.552637 0.02749,-0.998865 -0.41614,-1.339145 -0.433882,-0.328952 -1.015568,-0.475517 -1.745435,-0.440038 -0.452972,0.02202 -0.960003,0.159429 -1.521434,0.412372 0,0 -1.870189,0.870698 -1.870189,0.870698 0,0 -0.341373,-0.93249 -0.341373,-0.93249 -0.07739,-0.108998 -0.160076,-0.161339 -0.248094,-0.157061 0,0 -1.255883,0.331654 -1.255883,0.331654 -0.803691,0.230878 -1.325228,0.35217 -1.564263,0.363777 0,0 0.355812,0.695053 0.355812,0.695053 0.246176,0.6342 0.13061,1.708752 -0.349115,3.228702 0,0 -2.112645,6.693657 -2.112645,6.693657 0,0 3.48653,0.557058 3.48653,0.557058 1.850373,-0.08794 3.564295,-0.622382 5.137728,-1.601073 1.393715,-0.89729 2.235305,-1.835766 2.526914,-2.814732 z m -3.099016,1.509378 c -0.186382,0.615946 -0.580799,1.126041 -1.183515,1.529653 -0.521165,0.341516 -1.013005,0.523408 -1.475075,0.545401 -1.27049,0.06047 -2.002925,-0.268356 -2.197132,-0.985017 -0.103306,-0.357301 -0.0407,-0.902733 0.187258,-1.635221 0,0 0.579227,-1.921593 0.579227,-1.921593 0,0 1.176501,-3.719951 1.176501,-3.719951 0.100698,-0.323567 0.326603,-0.669867 0.677474,-1.038838 0.375655,-0.369735 0.727197,-0.562378 1.054991,-0.578274 0.479119,-0.02323 0.94789,0.169326 1.406863,0.578201 0.459748,0.409567 0.635361,0.793737 0.52615,1.152336 -0.169379,0.556166 -0.756538,1.007653 -1.761912,1.353863 -0.548248,0.198329 -1.349568,0.426149 -2.404193,0.683491 0,0 2.839849,1.452318 2.839849,1.452318 0.703186,0.660106 0.895135,1.520755 0.573514,2.583631 z"
       style="font-style:normal;font-variant:normal;font-weight:normal;font-stretch:normal;line-height:0.80000001;font-family:Libra;-inkscape-font-specification:Libra;text-align:center;text-anchor:middle;fill:#f2f24a;fill-opacity:1"
       id="path4543"
       inkscape:connector-curvature="0"
       inkscape:original-d="m 55.390863,72.601612 q 0,-3.16 -3.04,-5.24 l -4.2,-2.96 q 1.12,-1.12 2.2,-2.76 1.12,-1.72 1.12,-2.68 0,-1.92 -1.76,-3.2 -1.72,-1.24 -4.04,-1.24 -1.44,0 -3,0.8 l -3.44,1.84 -1.36,-2.24 q -0.36,-0.4 -0.64,-0.4 l -2.48,0.64 q -2.36,0.68 -3.12,0.68 l 1.24,1.68 q 1.44,2.28 1.44,7.52 v 15.16 l 7.72,1.64 q 5.76,0 9.8,-3.08 3.56,-2.84 3.56,-6.16 z m -5.6,3.12 q 0,2.08 -1.52,3.36 -1.32,1.08 -2.76,1.08 -3.96,0 -5.28,-2.48 -0.68,-1.24 -0.68,-3.72 l -0.04,-4.36 0.04,-8.52 q 0,-1.12 0.76,-2.36 0.84,-1.24 1.88,-1.24 1.52,0 3.4,1.52 1.88,1.52 1.88,2.76 0,1.92 -2.88,2.96 -1.56,0.6 -4.68,1.32 l 7,3.68 q 2.88,2.4 2.88,6 z" />
    <path
       d="m 67.141648,65.398211 c 0,0 3.378651,-11.604497 3.378651,-11.604497 0,0 -1.81334,0.274358 -1.81334,0.274358 -0.603367,0.108354 -1.130989,0.275172 -1.583012,0.500555 0.201571,0.284329 0.297989,0.630753 0.289073,1.039493 -0.0089,0.409362 -0.100415,0.908741 -0.274724,1.498611 0,0 -2.580406,8.732183 -2.580406,8.732183 0,0 1.612172,-0.306235 1.612172,-0.306235 0.135617,-0.02999 0.309815,-0.06181 0.522591,-0.09546 0.106385,-0.01683 0.256047,-0.02983 0.448995,-0.03901 z"
       style="font-style:normal;font-variant:normal;font-weight:normal;font-stretch:normal;line-height:0.80000001;font-family:Libra;-inkscape-font-specification:Libra;text-align:center;text-anchor:middle;fill:#f2f24a;fill-opacity:1"
       id="path4545"
       inkscape:connector-curvature="0"
       inkscape:original-d="m 63.360238,81.001612 v -26.48 l -3.72,0.44 q -1.84,0.28 -3.08,1 0.92,1.04 1.28,2.48 0.36,1.44 0.36,3.48 v 19.8 l 3.2,-0.52 q 0.4,-0.08 1.04,-0.16 0.32,-0.04 0.92,-0.04 z" />
    <path
       d="m 80.672579,61.068465 c 0.250008,-0.928704 -0.02858,-1.673052 -0.833726,-2.234361 0,0 -1.65216,-1.196663 -1.65216,-1.196663 0.445508,-0.342458 0.904827,-0.759601 1.377742,-1.251104 0.491125,-0.514413 0.774109,-0.909766 0.84953,-1.186517 0.150617,-0.552673 -0.0023,-0.99889 -0.458094,-1.339111 -0.445644,-0.328896 -1.034278,-0.475379 -1.76629,-0.439797 -0.454303,0.02208 -0.959447,0.159568 -1.515768,0.412594 0,0 -1.852333,0.870978 -1.852333,0.870978 0,0 -0.370798,-0.932457 -0.370798,-0.932457 -0.08099,-0.108987 -0.165612,-0.161318 -0.253888,-0.157027 0,0 -1.25147,0.331837 -1.25147,0.331837 -0.800308,0.230995 -1.320506,0.352363 -1.560243,0.364005 0,0 0.378184,0.695014 0.378184,0.695014 0.266246,0.634178 0.182342,1.708774 -0.253989,3.228841 0,0 -1.921586,6.694319 -1.921586,6.694319 0,0 3.51863,0.556614 3.51863,0.556614 1.855928,-0.08821 3.561429,-0.622925 5.112505,-1.601905 1.372998,-0.897545 2.19019,-1.836197 2.453754,-2.81526 z m -3.067488,1.5099 c -0.168755,0.616012 -0.549637,1.126196 -1.142929,1.529919 -0.513241,0.341614 -1.001809,0.523587 -1.465265,0.545646 -1.274299,0.06065 -2.01982,-0.268097 -2.236345,-0.984779 -0.11446,-0.35731 -0.06791,-0.902786 0.139124,-1.63535 0,0 0.524244,-1.921775 0.524244,-1.921775 0,0 1.07029,-3.720256 1.07029,-3.720256 0.09145,-0.32359 0.30798,-0.66993 0.649345,-1.038959 0.366234,-0.369796 0.713552,-0.562492 1.042312,-0.578435 0.48053,-0.0233 0.95713,0.169195 1.430369,0.578014 0.474041,0.409511 0.661935,0.793665 0.562986,1.15229 -0.153465,0.556207 -0.729685,1.007792 -1.729119,1.354156 -0.544723,0.198414 -1.342752,0.426355 -2.394317,0.683855 0,0 2.895867,1.451982 2.895867,1.451982 0.726063,0.66004 0.94464,1.520709 0.653438,2.583692 z"
       style="font-style:normal;font-variant:normal;font-weight:normal;font-stretch:normal;line-height:0.80000001;font-family:Libra;-inkscape-font-specification:Libra;text-align:center;text-anchor:middle;fill:#f2f24a;fill-opacity:1"
       id="path4547"
       inkscape:connector-curvature="0"
       inkscape:original-d="m 89.297113,72.601612 q 0,-3.16 -3.04,-5.24 l -4.2,-2.96 q 1.12,-1.12 2.2,-2.76 1.12,-1.72 1.12,-2.68 0,-1.92 -1.76,-3.2 -1.72,-1.24 -4.04,-1.24 -1.44,0 -3,0.8 l -3.44,1.84 -1.36,-2.24 q -0.36,-0.4 -0.64,-0.4 l -2.48,0.64 q -2.36,0.68 -3.12,0.68 l 1.24,1.68 q 1.44,2.28 1.44,7.52 v 15.16 l 7.72,1.64 q 5.76,0 9.8,-3.08 3.56,-2.84 3.56,-6.16 z m -5.6,3.12 q 0,2.08 -1.52,3.36 -1.32,1.08 -2.76,1.08 -3.96,0 -5.28,-2.48 -0.68,-1.24 -0.68,-3.72 l -0.04,-4.36 0.04,-8.52 q 0,-1.12 0.76,-2.36 0.84,-1.24 1.88,-1.24 1.52,0 3.4,1.52 1.88,1.52 1.88,2.76 0,1.92 -2.88,2.96 -1.56,0.6 -4.68,1.32 l 7,3.68 q 2.88,2.4 2.88,6 z" />
    <path
       d="m 86.934769,63.838632 c 0,0 -0.0351,-0.08653 -0.0351,-0.08653 0,0 -0.04066,-0.13912 -0.04066,-0.13912 0,0 -1.169637,0.461411 -1.169637,0.461411 0,0 -0.525388,0.183915 -0.525388,0.183915 -0.232183,0.01105 -0.456592,-0.0077 -0.673193,-0.05625 -0.180978,-0.03846 -0.384799,-0.111116 -0.611411,-0.217936 0,0 1.844397,-7.037066 1.844397,-7.037066 0.10947,-0.417667 0.165655,-1.01494 0.168672,-1.790617 -0.03104,-0.45365 -0.06118,-0.838464 -0.09044,-1.154738 -0.02867,-0.270617 -0.08948,-0.584659 -0.18235,-0.941965 0,0 -1.721118,0.490678 -1.721118,0.490678 -0.368962,0.119769 -0.72044,0.267027 -1.054479,0.441817 0.423298,0.330926 0.594995,1.021244 0.51442,2.073664 -0.01093,0.229007 -0.05501,0.488407 -0.132307,0.77828 0,0 -2.194347,8.229379 -2.194347,8.229379 0,0 4.046926,-0.192355 4.046926,-0.192355 0.374508,-0.0178 0.797139,-0.197162 1.267494,-0.53781 0,0 0.588524,-0.50476 0.588524,-0.50476 z"
       style="font-style:normal;font-variant:normal;font-weight:normal;font-stretch:normal;line-height:0.80000001;font-family:Libra;-inkscape-font-specification:Libra;text-align:center;text-anchor:middle;fill:#f2f24a;fill-opacity:1"
       id="path4549"
       inkscape:connector-curvature="0"
       inkscape:original-d="m 103.98649,79.601612 -0.12,-0.2 -0.16,-0.32 -2.2,0.92 -1,0.36 q -0.720002,0 -1.440002,-0.2 -0.6,-0.16 -1.4,-0.56 v -15.96 q 0,-1.44 -0.64,-4.16 -0.48,-1.6 -0.84,-2.72 -0.32,-0.96 -0.92,-2.24 l -3.4,0.96 q -1.08,0.36 -2,0.92 1.64,1.24 2.28,4.92 0.16,0.8 0.16,1.8 v 18.64 h 8.360002 q 1.16,0 2.36,-1.08 z" />
    <path
       d="m 98.390802,61.181966 c 0,0 -0.05341,-0.417725 -0.05341,-0.417725 0,0 -0.935414,-0.235043 -0.935414,-0.235043 0,0 -0.458158,0.161794 -0.458158,0.161794 -0.268859,0.748291 -0.591561,1.348779 -0.968002,1.800491 -0.474565,0.539311 -1.015588,0.823784 -1.622378,0.852686 -0.942329,0.04488 -1.800685,-0.378421 -2.573145,-1.267553 -0.782589,-0.885389 -1.0751,-1.715475 -0.880006,-2.490972 0.06103,-0.141998 0.154535,-0.262324 0.280521,-0.361009 0,0 0.306925,-0.240412 0.306925,-0.240412 0,0 3.321842,-0.159588 3.321842,-0.159588 0.307324,-0.01477 0.820334,-0.172463 1.53856,-0.472903 0.679234,-0.298339 1.226404,-0.60163 1.641637,-0.909836 0,0 -2.332523,0.319766 -2.332523,0.319766 -0.1875,0.04361 -0.469466,0.08601 -0.845889,0.127193 0,0 -0.01917,9.23e-4 -0.01917,9.23e-4 -0.194605,0.0209 -0.464468,0.03965 -0.809573,0.05626 0,0 -0.210886,0.01015 -0.210886,0.01015 0,0 -0.249219,0.01199 -0.249219,0.01199 -0.702865,0.03383 -1.261833,-0.0027 -1.676803,-0.109472 -0.407839,-0.08404 -0.585279,-0.230917 -0.532489,-0.440558 0.260433,-1.034236 0.873717,-1.973274 1.838563,-2.818233 0.767087,-0.662776 1.295827,-1.000698 1.587485,-1.01485 0.367765,-0.01784 0.854535,0.1686 1.461052,0.559824 0,0 1.740898,1.216007 1.740898,1.216007 0,0 0.463594,-0.279573 0.463594,-0.279573 0.35089,-0.256776 0.72217,-0.599861 1.113631,-1.028948 -0.400885,-0.424164 -0.760265,-0.730425 -1.078461,-0.919214 -0.665304,-0.409641 -1.37113,-0.596031 -2.118284,-0.559714 -0.202601,0.0098 -0.792176,0.219539 -1.769588,0.629435 -1.348388,0.587221 -2.485498,1.273165 -3.411405,2.058602 -1.310473,1.103513 -2.15054,2.37211 -2.518065,3.808343 -0.411599,1.608473 -0.117195,2.964399 0.888297,4.064411 0.866951,0.911295 1.786308,1.345144 2.75583,1.299052 1.538662,-0.07315 2.976877,-0.548564 4.311595,-1.424439 1.090889,-0.721328 1.694477,-1.330107 1.812441,-1.826888 z"
       style="font-style:normal;font-variant:normal;font-weight:normal;font-stretch:normal;line-height:0.80000001;font-family:Libra;-inkscape-font-specification:Libra;text-align:center;text-anchor:middle;fill:#f2f24a;fill-opacity:1"
       id="path4551"
       inkscape:connector-curvature="0"
       inkscape:original-d="m 126.60524,74.801612 -0.32,-0.96 -2.08,-0.64 -0.88,0.32 q -0.28,2.52 -1.12,4 -1.08,1.76 -2.96,1.76 -2.92,0 -6.04,-3.16 -3.16,-3.16 -3.16,-5.8 0.08,-0.48 0.4,-0.8 l 0.52,-0.52 h 6.92 q 0.96,0 3,-0.92 1.92,-0.92 3,-1.92 l -4.76,0.48 q -0.56,0.12 -1.72,0.2 h -0.04 q -0.6,0.04 -1.68,0.04 h -0.44 -0.52 q -2.2,0 -3.6,-0.44 -1.36,-0.36 -1.36,-1.08 0,-3.56 2.4,-6.36 1.92,-2.2 2.84,-2.2 1.16,0 3.4,1.48 l 4.32,3.04 0.84,-0.6 q 0.92,-0.84 1.84,-2.28 -1.6,-1.56 -2.76,-2.28 -2.44,-1.56 -4.8,-1.56 -0.64,0 -3.44,1.28 -3.84,1.84 -6.16,4.44 -3.28,3.64 -3.28,8.56 0,5.48 4.04,9.4 3.44,3.24 6.44,3.24 4.76,0 8.28,-2.76 2.88,-2.28 2.88,-3.96 z" />
    <path
       d="m 66.264469,71.533155 c 0,0 -0.08051,-0.184682 -0.08051,-0.184682 0,0 -7.312863,0.343858 -7.312863,0.343858 0,0 -1.175006,2.054826 -1.175006,2.054826 -0.01784,0.09566 -0.02515,0.17505 -0.02192,0.238152 -0.0032,0.0107 8.08e-4,0.01578 0.01216,0.01525 0,0 1.064516,-0.413401 1.064516,-0.413401 0.283399,-0.08699 0.511739,-0.139799 0.685065,-0.158448 0.255919,-0.03305 0.480277,-0.05409 0.673086,-0.06312 0,0 3.658977,-0.171467 3.658977,-0.171467 0,0 -0.0628,0.271588 -0.0628,0.271588 0,0 -3.775796,3.771894 -3.775796,3.771894 -0.750317,0.740192 -1.331734,1.345552 -1.743382,1.815292 -0.489241,0.538565 -1.350475,1.559015 -2.587625,3.066204 0,0 -0.124962,0.412883 -0.124962,0.412883 0,0 1.46838,-0.06761 1.46838,-0.06761 0,0 9.322682,-10.931217 9.322682,-10.931217 z"
       style="font-style:normal;font-variant:normal;font-weight:normal;font-stretch:normal;font-size:32px;line-height:0.80000001;font-family:Libra;-inkscape-font-specification:Libra;text-align:center;text-anchor:middle;fill:#f2f24a;fill-opacity:1;stroke-width:1.08837676"
       id="path4553"
       inkscape:connector-curvature="0"
       inkscape:original-d="M 65.250247,94.659448 64.971622,94.241511 H 49.960731 l -1.149326,4.423163 q 0.03483,0.313453 0.104484,0.522421 0,0.03483 0.03483,0.03483 L 50.90109,98.42088 q 0.801045,-0.243796 1.323466,-0.278624 0.766217,-0.06966 1.358294,-0.06966 h 7.488032 l 0.03483,0.592077 -5.502832,7.871137 q -1.636919,2.29865 -2.472792,3.76143 -1.010014,1.67175 -3.41315,6.33871 v 0.8707 h 2.960385 z" />
    <path
       d="m 74.334622,74.873451 c 0.314586,-1.14906 0.239749,-2.085593 -0.222603,-2.811538 -0.475351,-0.712774 -1.233864,-1.043916 -2.276365,-0.994895 -1.348157,0.06339 -2.581168,0.509001 -3.701464,1.338449 -1.123214,0.831609 -1.852572,1.826567 -2.186893,2.986769 -0.267191,0.927235 -0.09285,1.751407 0.524949,2.471773 0.558772,0.617765 1.159964,0.912318 1.802627,0.88254 0.286928,-0.01329 0.638178,-0.09409 1.053621,-0.242351 0,0 1.332369,-0.512862 1.332369,-0.512862 0.120097,0.01591 0.168044,0.06735 0.143827,0.154355 -0.07877,0.282987 -0.717398,0.947458 -1.91881,1.995807 -1.079105,0.926717 -2.015518,1.642876 -2.807772,2.147018 0,0 -0.113039,0.397312 -0.113039,0.397312 0.590832,-0.234194 1.299492,-0.604272 2.125323,-1.10977 1.464488,-0.881109 2.684148,-1.791981 3.659649,-2.732222 1.354912,-1.298461 2.215468,-2.622163 2.584581,-3.970385 z m -2.267194,0.679908 c -0.167673,0.604433 -0.434276,1.097184 -0.799882,1.477646 -0.351577,0.369552 -0.77392,0.565935 -1.266679,0.588814 -0.595836,0.02766 -1.181767,-0.40014 -1.756394,-1.281192 -0.417312,-0.672723 -0.498221,-1.454849 -0.244118,-2.345582 0.103862,-0.364078 0.334947,-0.781107 0.692933,-1.250883 0.501905,-0.622917 1.018926,-0.946408 1.551881,-0.971438 0.476302,-0.02237 0.948421,0.249468 1.417102,0.816452 0.612518,0.740986 0.748383,1.728916 0.405157,2.966183 z"
       style="font-style:normal;font-variant:normal;font-weight:normal;font-stretch:normal;font-size:32px;line-height:0.80000001;font-family:Libra;-inkscape-font-specification:Libra;text-align:center;text-anchor:middle;fill:#f2f24a;fill-opacity:1;stroke-width:1.08837676"
       id="path4555"
       inkscape:connector-curvature="0"
       inkscape:original-d="m 83.898493,102.84404 q 0,-3.726601 -2.054855,-6.199393 -2.089683,-2.437964 -5.293864,-2.437964 -4.144539,0 -6.895955,2.577276 -2.751416,2.577276 -2.751416,6.338701 0,2.99521 2.542448,5.43318 2.263823,2.08968 4.214194,2.08968 0.870702,0 2.020028,-0.41794 l 2.437963,-0.97518 q 0.383109,0.0697 0.383109,0.34828 0,0.90553 -2.786244,4.10971 -2.50762,2.82107 -4.49282,4.31868 v 0.83587 q 1.602091,-0.66173 3.691774,-2.15934 3.726602,-2.6121 5.92077,-5.50283 3.064868,-4.00523 3.064868,-8.35873 z m -4.28385,1.25381 q 0,1.95037 -0.801046,3.13452 -0.766217,1.14933 -2.263823,1.14933 -1.811059,0 -4.353507,-2.96039 -1.880715,-2.26382 -1.880715,-5.15455 0,-1.184149 0.696561,-2.681755 1.010014,-1.985199 2.646932,-1.985199 1.462779,0 3.41315,1.950371 2.542448,2.542443 2.542448,6.547673 z" />
    <path
       d="m 78.026914,81.199778 c 0,0 -0.54039,-0.415201 -0.54039,-0.415201 -0.114913,-0.168377 -0.10957,-0.488559 0.01582,-0.960047 0,0 0.748284,-2.941421 0.748284,-2.941421 0,0 0.689317,-2.84557 0.689317,-2.84557 0,0 0.87356,-3.345659 0.87356,-3.345659 -0.428253,0.219307 -1.268431,0.55255 -2.521429,1.000018 -0.762253,0.288123 -1.256512,0.55861 -1.482478,0.81145 0,0 1.070943,-0.160826 1.070943,-0.160826 0.119489,-0.02667 0.287263,-0.04507 0.503332,-0.0552 0,0 -2.593325,9.616595 -2.593325,9.616595 0.118584,-0.01634 0.338411,-0.04825 0.659467,-0.09571 0,0 0.342809,-0.06479 0.342809,-0.06479 0.430952,-0.07429 0.750559,-0.137994 0.958839,-0.191129 0.205324,-0.04211 0.449703,-0.102341 0.733109,-0.180681 0.283357,-0.07833 0.464058,-0.135604 0.542137,-0.171832 0,0 3e-6,0 3e-6,0 z"
       style="font-style:normal;font-variant:normal;font-weight:normal;font-stretch:normal;font-size:32px;line-height:0.80000001;font-family:Libra;-inkscape-font-specification:Libra;text-align:center;text-anchor:middle;fill:#f2f24a;fill-opacity:1;stroke-width:1.08837676"
       id="path4557"
       inkscape:connector-curvature="0"
       inkscape:original-d="m 94.941164,116.87974 -1.323466,-0.94035 q -0.487593,-0.55725 -0.487593,-2.05486 l -0.06966,-6.26905 -0.139313,-6.12973 -0.03483,-7.279067 q -1.149325,0.661733 -4.666959,1.950371 -2.124511,0.835874 -2.612104,1.636919 l 2.124511,-0.243796 q 0.348281,-0.06966 1.010014,-0.06966 V 118.0639 q 0.34828,-0.0348 1.288638,-0.13932 l 0.661733,-0.10448 q 1.25381,-0.17414 1.845887,-0.31345 0.592077,-0.10449 1.393122,-0.31345 0.801045,-0.20897 1.010014,-0.31346 z" />
    <path
       d="m 88.611258,77.626553 c 0.164371,-0.663683 0.03072,-1.247694 -0.400022,-1.752439 0,0 -1.241661,-1.015354 -1.241661,-1.015354 0.723905,-0.449092 1.269509,-0.889297 1.637154,-1.320611 0.249755,-0.276834 0.413242,-0.570575 0.490567,-0.881158 0.162377,-0.652195 -3.7e-5,-1.198156 -0.486323,-1.63842 -0.476738,-0.429402 -1.061424,-0.62753 -1.754606,-0.594939 -0.693097,0.03259 -1.514404,0.28102 -2.464941,0.745768 -0.784586,0.383861 -1.464118,0.858009 -2.038731,1.4229 0,0 -0.27651,1.060162 -0.27651,1.060162 0,0 0.582174,-0.02721 0.582174,-0.02721 0.515291,-0.204209 0.869166,-0.395475 1.061757,-0.573806 0.192483,-0.178229 0.316264,-0.374277 0.371394,-0.588101 0,0 0.03962,-0.350057 0.03962,-0.350057 0,0 0.01312,-0.44315 0.01312,-0.44315 0.06049,-0.234362 0.340931,-0.363218 0.8414,-0.386713 0.43226,-0.02029 0.898007,0.136683 1.397732,0.471276 0.60148,0.4253 0.817613,0.975179 0.647313,1.650276 -0.159853,0.633681 -0.639295,1.16654 -1.438818,1.597931 0,0 -1.918073,0.793638 -1.918073,0.793638 0.175443,0.06664 0.789881,0.14494 1.84382,0.234946 0.890716,0.290434 1.202901,0.967692 0.934909,2.034439 -0.203021,0.808131 -0.616055,1.49816 -1.23952,2.069161 -0.518561,0.469291 -0.997937,0.714326 -1.437527,0.73458 -0.601481,0.02771 -1.06307,-0.244567 -1.384302,-0.815921 -0.33208,-0.569605 -0.61313,-0.848621 -0.843673,-0.837962 0,0 -0.656599,0.160092 -0.656599,0.160092 -0.175653,0.06219 -0.345622,0.102492 -0.509888,0.120897 -0.181521,0.04084 -0.376052,0.06606 -0.583576,0.07565 0,0 -0.107703,0.410938 -0.107703,0.410938 0.607863,1.035674 1.554945,1.525462 2.839696,1.46633 1.505051,-0.06927 2.844292,-0.501293 4.015298,-1.294613 1.156647,-0.790881 1.844966,-1.633944 2.066522,-2.528527 z"
       style="font-style:normal;font-variant:normal;font-weight:normal;font-stretch:normal;font-size:32px;line-height:0.80000001;font-family:Libra;-inkscape-font-specification:Libra;text-align:center;text-anchor:middle;fill:#f2f24a;fill-opacity:1;stroke-width:1.08837676"
       id="path4559"
       inkscape:connector-curvature="0"
       inkscape:original-d="m 114.63534,110.26241 q 0,-2.12451 -1.70658,-3.83108 l -3.06487,-2.33348 q 1.88072,-1.3583 2.68176,-2.71659 0.55725,-0.8707 0.55725,-1.880712 0,-2.124512 -1.84588,-3.656946 -1.81106,-1.497606 -3.93557,-1.497606 -2.12452,0 -4.70179,1.393122 -2.12451,1.149326 -3.447976,2.925556 v 2.298656 h 1.184156 q 1.42795,-0.59208 1.88071,-1.14933 0.45277,-0.557249 0.45277,-1.25381 l -0.10449,-0.766217 -0.20896,-0.975186 q 0,-0.766217 1.53243,-0.766217 1.32346,0 3.13452,1.184154 2.19417,1.497606 2.19417,3.691776 0,2.05485 -2.12451,3.34349 l -3.51763,1.53243 q 0.59207,0.2438 3.90074,0.69656 2.96038,1.07967 2.96038,4.49282 0,2.57728 -1.46278,4.31868 -1.21898,1.42795 -2.54245,1.42795 -1.81105,0 -3.239,-1.88071 -1.46278,-1.88072 -2.15934,-1.88072 l -1.253811,0.27863 q -0.487593,0.17414 -0.975186,0.20896 -0.52242,0.10449 -1.149325,0.10449 v 0.8707 q 2.681762,3.41315 6.547672,3.41315 4.52765,0 7.48803,-2.36831 2.92556,-2.36831 2.92556,-5.22421 z" />
  </g>
</svg>
